name Walk9.mot
datacolumns 19
datarows 15
range 2.25000000 2.32000000
endheader

                time	   L_ground_force_vx	   L_ground_force_vy	   L_ground_force_vz	   L_ground_force_px	   L_ground_force_py	   L_ground_force_pz	   R_ground_force_vx	   R_ground_force_vy	   R_ground_force_vz	   R_ground_force_px	   R_ground_force_py	   R_ground_force_pz	   L_ground_torque_x	   L_ground_torque_y	   L_ground_torque_z	   R_ground_torque_x	   R_ground_torque_y	   R_ground_torque_z	
          2.25000000	          0.00000000	          0.00000000	          0.00000000	         -0.00000000	          0.00000000	         -0.00000000	          0.21172554	          3.57922765	          1.34972559	          0.10791153	          0.00000000	          0.02391774	          0.00000000	          0.00000000	          0.00000000	          0.00000000	          0.05013763	          0.00000000	
          2.25500000	          0.00000000	          0.00000000	         -0.00000000	         -0.00000000	          0.00000000	         -0.00000000	         -1.26712083	         -1.58818858	          0.88069973	          0.07568662	          0.00000000	          0.01646935	          0.00000000	          0.00000000	          0.00000000	          0.00000000	          0.04023605	          0.00000000	
          2.26000000	          0.00000000	          0.00000000	         -0.00000000	         -0.00000000	          0.00000000	         -0.00000000	         -2.11526242	         -4.77634599	          0.51026983	          0.04903551	          0.00000000	          0.01039032	          0.00000000	          0.00000000	          0.00000000	          0.00000000	          0.03070418	          0.00000000	
          2.26500000	          0.00000000	          0.00000000	         -0.00000000	         -0.00000000	          0.00000000	         -0.00000000	         -2.49186751	         -6.44309837	          0.23236413	          0.02806656	          0.00000000	          0.00567020	          0.00000000	          0.00000000	          0.00000000	          0.00000000	          0.02216324	          0.00000000	
          2.27000000	          0.00000000	          0.00000000	         -0.00000000	         -0.00000000	          0.00000000	         -0.00000000	         -2.53630047	         -7.00238320	          0.03577140	          0.01239985	          0.00000000	          0.00219484	          0.00000000	          0.00000000	          0.00000000	          0.00000000	          0.01493326	          0.00000000	
          2.27500000	          0.00000000	          0.00000000	         -0.00000000	         -0.00000000	          0.00000000	         -0.00000000	         -2.36420376	         -6.80723788	         -0.09312879	          0.00137241	          0.00000000	         -0.00020743	          0.00000000	          0.00000000	          0.00000000	          0.00000000	          0.00911577	          0.00000000	
          2.28000000	         -0.00000000	         -0.00000000	         -0.00000000	         -0.00000000	          0.00000000	         -0.00000000	         -2.06686155	         -6.14372477	         -0.16842463	         -0.00580781	          0.00000000	         -0.00173155	          0.00000000	          0.00000000	          0.00000000	          0.00000000	          0.00466418	          0.00000000	
          2.28500000	         -0.00000000	         -0.00000000	         -0.00000000	         -0.00000000	          0.00000000	         -0.00000000	         -1.71271799	         -5.23233231	         -0.20339004	         -0.00995302	          0.00000000	         -0.00257200	          0.00000000	          0.00000000	          0.00000000	          0.00000000	          0.00144058	          0.00000000	
          2.29000000	         -0.00000000	         -0.00000000	         -0.00000000	         -0.00000000	          0.00000000	         -0.00000000	         -1.35015730	         -4.23405977	         -0.20972698	         -0.01182410	          0.00000000	         -0.00290754	          0.00000000	          0.00000000	          0.00000000	          0.00000000	         -0.00074058	          0.00000000	
          2.29500000	         -0.00000000	         -0.00000000	         -0.00000000	         -0.00000000	          0.00000000	         -0.00000000	         -1.01087304	         -3.25902399	         -0.19720388	         -0.01208884	          0.00000000	         -0.00289277	          0.00000000	          0.00000000	          0.00000000	          0.00000000	         -0.00208075	          0.00000000	
          2.30000000	         -0.00000000	         -0.00000000	         -0.00000000	          0.00000000	          0.00000000	          0.00000000	         -0.71334878	         -2.37600304	         -0.17357661	         -0.01130254	          0.00000000	         -0.00265452	          0.00000000	         -0.00000000	          0.00000000	          0.00000000	         -0.00277561	          0.00000000	
          2.30500000	         -0.00000000	         -0.00000000	         -0.00000000	          0.00000000	          0.00000000	          0.00000000	         -0.46613497	         -1.62182570	         -0.14469709	         -0.00990440	          0.00000000	         -0.00229179	          0.00000000	         -0.00000000	          0.00000000	          0.00000000	         -0.00300169	          0.00000000	
          2.31000000	         -0.00000000	         -0.00000000	         -0.00000000	          0.00000000	          0.00000000	          0.00000000	         -0.27073591	         -1.00991958	         -0.11473342	         -0.00822448	          0.00000000	         -0.00187792	          0.00000000	         -0.00000000	          0.00000000	          0.00000000	         -0.00290928	          0.00000000	
          2.31500000	         -0.00000000	         -0.00000000	         -0.00000000	          0.00000000	          0.00000000	          0.00000000	         -0.12401833	         -0.53764361	         -0.08644428	         -0.00649673	          0.00000000	         -0.00146400	          0.00000000	         -0.00000000	          0.00000000	          0.00000000	         -0.00261993	          0.00000000	
          2.32000000	         -0.00000000	         -0.00000000	         -0.00000000	          0.00000000	          0.00000000	          0.00000000	         -0.02012285	         -0.19226107	         -0.06146630	         -0.00487494	          0.00000000	         -0.00108277	          0.00000000	         -0.00000000	          0.00000000	          0.00000000	         -0.00222717	          0.00000000	
